<svg width="1920" height="1081" viewBox="0 0 1920 1081" fill="none" xmlns="http://www.w3.org/2000/svg">
<g clip-path="url(#clip0_2056_5)">
<rect width="1920" height="1080" transform="translate(0 0.956146)" fill="#CCFFD8"/>
<path d="M223 628.595V452.938C223 441.758 223 436.169 225.176 431.899C227.089 428.143 230.143 425.089 233.899 423.176C238.169 421 243.758 421 254.938 421H270.906C282.086 421 287.675 421 291.945 423.176C295.701 425.089 298.755 428.143 300.668 431.899C302.844 436.169 302.844 441.758 302.844 452.938V548.75C302.844 559.93 302.844 565.519 305.02 569.789C306.933 573.545 309.987 576.599 313.743 578.512C318.013 580.688 323.602 580.688 334.782 580.688H430.595C441.774 580.688 447.363 580.688 451.633 582.864C455.389 584.777 458.443 587.831 460.357 591.587C462.532 595.857 462.532 601.447 462.532 612.626V628.595C462.532 639.774 462.532 645.363 460.357 649.633C458.443 653.389 455.389 656.443 451.633 658.357C447.363 660.532 441.774 660.532 430.595 660.532H254.938C243.758 660.532 238.169 660.532 233.899 658.357C230.143 656.443 227.089 653.389 225.176 649.633C223 645.363 223 639.774 223 628.595Z" fill="url(#paint0_radial_2056_5)"/>
<circle cx="392.668" cy="490.864" r="69.8635" fill="url(#paint1_radial_2056_5)"/>
<path d="M626.593 617V465.652H658.592V590.618H723.476V617H626.593ZM877.854 541.326C877.854 557.83 874.725 571.872 868.468 583.449C862.261 595.027 853.787 603.87 843.047 609.979C832.356 616.039 820.335 619.069 806.983 619.069C793.533 619.069 781.463 616.015 770.772 609.906C760.081 603.796 751.632 594.953 745.424 583.375C739.217 571.798 736.113 557.781 736.113 541.326C736.113 524.822 739.217 510.781 745.424 499.203C751.632 487.625 760.081 478.806 770.772 472.747C781.463 466.638 793.533 463.583 806.983 463.583C820.335 463.583 832.356 466.638 843.047 472.747C853.787 478.806 862.261 487.625 868.468 499.203C874.725 510.781 877.854 524.822 877.854 541.326ZM845.412 541.326C845.412 530.635 843.81 521.619 840.608 514.279C837.455 506.938 832.996 501.371 827.232 497.577C821.468 493.784 814.718 491.887 806.983 491.887C799.248 491.887 792.499 493.784 786.735 497.577C780.97 501.371 776.487 506.938 773.285 514.279C770.132 521.619 768.555 530.635 768.555 541.326C768.555 552.017 770.132 561.033 773.285 568.374C776.487 575.714 780.97 581.282 786.735 585.075C792.499 588.869 799.248 590.765 806.983 590.765C814.718 590.765 821.468 588.869 827.232 585.075C832.996 581.282 837.455 575.714 840.608 568.374C843.81 561.033 845.412 552.017 845.412 541.326ZM901.557 617V465.652H961.269C972.699 465.652 982.453 467.697 990.533 471.786C998.662 475.826 1004.85 481.565 1009.08 489.005C1013.37 496.395 1015.51 505.09 1015.51 515.091C1015.51 525.142 1013.34 533.788 1009.01 541.03C1004.67 548.223 998.391 553.741 990.164 557.584C981.985 561.427 972.083 563.348 960.456 563.348H920.476V537.631H955.283C961.392 537.631 966.466 536.794 970.506 535.118C974.546 533.443 977.551 530.931 979.522 527.581C981.542 524.23 982.552 520.067 982.552 515.091C982.552 510.066 981.542 505.829 979.522 502.381C977.551 498.932 974.521 496.321 970.432 494.547C966.392 492.724 961.293 491.813 955.135 491.813H933.556V617H901.557ZM983.291 548.125L1020.91 617H985.582L948.78 548.125H983.291ZM1070.12 465.652V617H1038.13V465.652H1070.12ZM1096.45 617V465.652H1156.16C1167.64 465.652 1177.42 467.845 1185.5 472.229C1193.58 476.565 1199.74 482.6 1203.98 490.335C1208.26 498.021 1210.41 506.889 1210.41 516.939C1210.41 526.989 1208.24 535.857 1203.9 543.543C1199.57 551.229 1193.28 557.215 1185.06 561.501C1176.88 565.787 1166.98 567.93 1155.35 567.93H1117.29V542.287H1150.18C1156.33 542.287 1161.41 541.228 1165.4 539.109C1169.44 536.941 1172.44 533.961 1174.42 530.167C1176.44 526.324 1177.45 521.915 1177.45 516.939C1177.45 511.914 1176.44 507.529 1174.42 503.785C1172.44 499.991 1169.44 497.06 1165.4 494.991C1161.36 492.872 1156.24 491.813 1150.03 491.813H1128.45V617H1096.45ZM1313.29 509.179C1312.7 503.218 1310.16 498.587 1305.68 495.286C1301.2 491.985 1295.11 490.335 1287.43 490.335C1282.21 490.335 1277.8 491.074 1274.2 492.552C1270.6 493.981 1267.84 495.976 1265.92 498.538C1264.05 501.1 1263.11 504.006 1263.11 507.258C1263.02 509.968 1263.58 512.333 1264.81 514.352C1266.1 516.372 1267.84 518.121 1270.06 519.599C1272.28 521.028 1274.84 522.284 1277.75 523.368C1280.65 524.403 1283.76 525.29 1287.06 526.029L1300.66 529.28C1307.26 530.758 1313.32 532.729 1318.84 535.192C1324.35 537.656 1329.13 540.686 1333.17 544.282C1337.21 547.879 1340.34 552.116 1342.56 556.993C1344.82 561.87 1345.98 567.462 1346.03 573.768C1345.98 583.03 1343.62 591.061 1338.94 597.86C1334.31 604.609 1327.6 609.856 1318.84 613.601C1310.12 617.296 1299.6 619.143 1287.28 619.143C1275.06 619.143 1264.42 617.271 1255.35 613.527C1246.34 609.782 1239.29 604.24 1234.22 596.899C1229.19 589.509 1226.56 580.37 1226.31 569.482H1257.28C1257.62 574.557 1259.07 578.794 1261.64 582.193C1264.25 585.543 1267.72 588.08 1272.06 589.805C1276.44 591.48 1281.39 592.317 1286.91 592.317C1292.33 592.317 1297.03 591.529 1301.03 589.952C1305.07 588.376 1308.19 586.184 1310.41 583.375C1312.63 580.567 1313.74 577.34 1313.74 573.694C1313.74 570.295 1312.73 567.438 1310.71 565.122C1308.74 562.806 1305.83 560.836 1301.99 559.21C1298.19 557.584 1293.54 556.106 1288.02 554.776L1271.54 550.638C1258.78 547.534 1248.7 542.681 1241.31 536.079C1233.92 529.477 1230.25 520.585 1230.3 509.401C1230.25 500.238 1232.69 492.232 1237.62 485.384C1242.59 478.535 1249.42 473.19 1258.09 469.347C1266.76 465.504 1276.61 463.583 1287.65 463.583C1298.88 463.583 1308.69 465.504 1317.06 469.347C1325.49 473.19 1332.04 478.535 1336.72 485.384C1341.4 492.232 1343.81 500.164 1343.96 509.179H1313.29ZM1461.04 465.652H1493.04V563.94C1493.04 574.975 1490.4 584.632 1485.13 592.909C1479.91 601.185 1472.59 607.639 1463.18 612.27C1453.77 616.852 1442.81 619.143 1430.3 619.143C1417.73 619.143 1406.75 616.852 1397.34 612.27C1387.93 607.639 1380.61 601.185 1375.39 592.909C1370.17 584.632 1367.55 574.975 1367.55 563.94V465.652H1399.55V561.205C1399.55 566.97 1400.81 572.093 1403.32 576.577C1405.88 581.06 1409.48 584.582 1414.11 587.144C1418.74 589.706 1424.14 590.987 1430.3 590.987C1436.5 590.987 1441.9 589.706 1446.48 587.144C1451.11 584.582 1454.68 581.06 1457.2 576.577C1459.76 572.093 1461.04 566.97 1461.04 561.205V465.652ZM1519.36 465.652H1558.83L1600.51 567.339H1602.28L1643.96 465.652H1683.42V617H1652.38V518.491H1651.13L1611.96 616.261H1590.83L1551.66 518.121H1550.4V617H1519.36V465.652Z" fill="black"/>
<path d="M609.636 888V841.455H615.273V883H636.909V888H609.636ZM659.091 888.727C655.939 888.727 653.174 887.977 650.795 886.477C648.432 884.977 646.583 882.879 645.25 880.182C643.932 877.485 643.273 874.333 643.273 870.727C643.273 867.091 643.932 863.917 645.25 861.205C646.583 858.492 648.432 856.386 650.795 854.886C653.174 853.386 655.939 852.636 659.091 852.636C662.242 852.636 665 853.386 667.364 854.886C669.742 856.386 671.591 858.492 672.909 861.205C674.242 863.917 674.909 867.091 674.909 870.727C674.909 874.333 674.242 877.485 672.909 880.182C671.591 882.879 669.742 884.977 667.364 886.477C665 887.977 662.242 888.727 659.091 888.727ZM659.091 883.909C661.485 883.909 663.455 883.295 665 882.068C666.545 880.841 667.689 879.227 668.432 877.227C669.174 875.227 669.545 873.061 669.545 870.727C669.545 868.394 669.174 866.22 668.432 864.205C667.689 862.189 666.545 860.561 665 859.318C663.455 858.076 661.485 857.455 659.091 857.455C656.697 857.455 654.727 858.076 653.182 859.318C651.636 860.561 650.492 862.189 649.75 864.205C649.008 866.22 648.636 868.394 648.636 870.727C648.636 873.061 649.008 875.227 649.75 877.227C650.492 879.227 651.636 880.841 653.182 882.068C654.727 883.295 656.697 883.909 659.091 883.909ZM683.097 888V853.091H688.278V858.364H688.642C689.278 856.636 690.43 855.235 692.097 854.159C693.763 853.083 695.642 852.545 697.733 852.545C698.127 852.545 698.619 852.553 699.21 852.568C699.801 852.583 700.248 852.606 700.551 852.636V858.091C700.369 858.045 699.953 857.977 699.301 857.886C698.665 857.78 697.991 857.727 697.278 857.727C695.581 857.727 694.066 858.083 692.733 858.795C691.415 859.492 690.369 860.462 689.597 861.705C688.839 862.932 688.46 864.333 688.46 865.909V888H683.097ZM720.483 888.727C717.119 888.727 714.218 887.985 711.778 886.5C709.354 885 707.483 882.909 706.165 880.227C704.862 877.53 704.21 874.394 704.21 870.818C704.21 867.242 704.862 864.091 706.165 861.364C707.483 858.621 709.316 856.485 711.665 854.955C714.028 853.409 716.786 852.636 719.938 852.636C721.756 852.636 723.551 852.939 725.324 853.545C727.097 854.151 728.71 855.136 730.165 856.5C731.619 857.848 732.778 859.636 733.642 861.864C734.506 864.091 734.938 866.833 734.938 870.091V872.364H708.028V867.727H729.483C729.483 865.758 729.089 864 728.301 862.455C727.528 860.909 726.422 859.689 724.983 858.795C723.559 857.901 721.877 857.455 719.938 857.455C717.801 857.455 715.953 857.985 714.392 859.045C712.847 860.091 711.657 861.455 710.824 863.136C709.991 864.818 709.574 866.621 709.574 868.545V871.636C709.574 874.273 710.028 876.508 710.938 878.341C711.862 880.159 713.142 881.545 714.778 882.5C716.415 883.439 718.316 883.909 720.483 883.909C721.892 883.909 723.165 883.712 724.301 883.318C725.453 882.909 726.445 882.303 727.278 881.5C728.112 880.682 728.756 879.667 729.21 878.455L734.392 879.909C733.847 881.667 732.93 883.212 731.642 884.545C730.354 885.864 728.763 886.894 726.869 887.636C724.975 888.364 722.847 888.727 720.483 888.727ZM743.097 888V853.091H748.278V858.545H748.733C749.46 856.682 750.634 855.235 752.256 854.205C753.877 853.159 755.824 852.636 758.097 852.636C760.4 852.636 762.316 853.159 763.847 854.205C765.392 855.235 766.597 856.682 767.46 858.545H767.824C768.718 856.742 770.059 855.311 771.847 854.25C773.634 853.174 775.778 852.636 778.278 852.636C781.4 852.636 783.953 853.614 785.938 855.568C787.922 857.508 788.915 860.53 788.915 864.636V888H783.551V864.636C783.551 862.061 782.847 860.22 781.438 859.114C780.028 858.008 778.369 857.455 776.46 857.455C774.006 857.455 772.104 858.197 770.756 859.682C769.407 861.151 768.733 863.015 768.733 865.273V888H763.278V864.091C763.278 862.106 762.634 860.508 761.347 859.295C760.059 858.068 758.4 857.455 756.369 857.455C754.975 857.455 753.672 857.826 752.46 858.568C751.263 859.311 750.294 860.341 749.551 861.659C748.824 862.962 748.46 864.47 748.46 866.182V888H743.097ZM823.085 841.455V888H817.449V841.455H823.085ZM833.659 901.091V853.091H838.841V858.636H839.477C839.871 858.03 840.417 857.258 841.114 856.318C841.826 855.364 842.841 854.515 844.159 853.773C845.492 853.015 847.295 852.636 849.568 852.636C852.508 852.636 855.098 853.371 857.341 854.841C859.583 856.311 861.333 858.394 862.591 861.091C863.848 863.788 864.477 866.97 864.477 870.636C864.477 874.333 863.848 877.538 862.591 880.25C861.333 882.947 859.591 885.038 857.364 886.523C855.136 887.992 852.568 888.727 849.659 888.727C847.417 888.727 845.621 888.356 844.273 887.614C842.924 886.856 841.886 886 841.159 885.045C840.432 884.076 839.871 883.273 839.477 882.636H839.023V901.091H833.659ZM838.932 870.545C838.932 873.182 839.318 875.508 840.091 877.523C840.864 879.523 841.992 881.091 843.477 882.227C844.962 883.348 846.78 883.909 848.932 883.909C851.174 883.909 853.045 883.318 854.545 882.136C856.061 880.939 857.197 879.333 857.955 877.318C858.727 875.288 859.114 873.03 859.114 870.545C859.114 868.091 858.735 865.879 857.977 863.909C857.235 861.924 856.106 860.356 854.591 859.205C853.091 858.038 851.205 857.455 848.932 857.455C846.75 857.455 844.917 858.008 843.432 859.114C841.947 860.205 840.826 861.735 840.068 863.705C839.311 865.659 838.932 867.939 838.932 870.545ZM897.386 860.909L892.568 862.273C892.265 861.47 891.818 860.689 891.227 859.932C890.652 859.159 889.864 858.523 888.864 858.023C887.864 857.523 886.583 857.273 885.023 857.273C882.886 857.273 881.106 857.765 879.682 858.75C878.273 859.72 877.568 860.955 877.568 862.455C877.568 863.788 878.053 864.841 879.023 865.614C879.992 866.386 881.508 867.03 883.568 867.545L888.75 868.818C891.871 869.576 894.197 870.735 895.727 872.295C897.258 873.841 898.023 875.833 898.023 878.273C898.023 880.273 897.447 882.061 896.295 883.636C895.159 885.212 893.568 886.455 891.523 887.364C889.477 888.273 887.098 888.727 884.386 888.727C880.826 888.727 877.879 887.955 875.545 886.409C873.212 884.864 871.735 882.606 871.114 879.636L876.205 878.364C876.689 880.242 877.606 881.651 878.955 882.591C880.318 883.53 882.098 884 884.295 884C886.795 884 888.78 883.47 890.25 882.409C891.735 881.333 892.477 880.045 892.477 878.545C892.477 877.333 892.053 876.318 891.205 875.5C890.356 874.667 889.053 874.045 887.295 873.636L881.477 872.273C878.28 871.515 875.932 870.341 874.432 868.75C872.947 867.144 872.205 865.136 872.205 862.727C872.205 860.758 872.758 859.015 873.864 857.5C874.985 855.985 876.508 854.795 878.432 853.932C880.371 853.068 882.568 852.636 885.023 852.636C888.477 852.636 891.189 853.394 893.159 854.909C895.144 856.424 896.553 858.424 897.386 860.909ZM928.097 873.727V853.091H933.46V888H928.097V882.091H927.733C926.915 883.864 925.642 885.371 923.915 886.614C922.188 887.841 920.006 888.455 917.369 888.455C915.188 888.455 913.248 887.977 911.551 887.023C909.854 886.053 908.521 884.598 907.551 882.659C906.581 880.705 906.097 878.242 906.097 875.273V853.091H911.46V874.909C911.46 877.455 912.172 879.485 913.597 881C915.036 882.515 916.869 883.273 919.097 883.273C920.43 883.273 921.786 882.932 923.165 882.25C924.559 881.568 925.725 880.523 926.665 879.114C927.619 877.705 928.097 875.909 928.097 873.727ZM943.284 888V853.091H948.466V858.545H948.92C949.648 856.682 950.822 855.235 952.443 854.205C954.064 853.159 956.011 852.636 958.284 852.636C960.587 852.636 962.504 853.159 964.034 854.205C965.58 855.235 966.784 856.682 967.648 858.545H968.011C968.905 856.742 970.246 855.311 972.034 854.25C973.822 853.174 975.966 852.636 978.466 852.636C981.587 852.636 984.14 853.614 986.125 855.568C988.11 857.508 989.102 860.53 989.102 864.636V888H983.739V864.636C983.739 862.061 983.034 860.22 981.625 859.114C980.216 858.008 978.557 857.455 976.648 857.455C974.193 857.455 972.292 858.197 970.943 859.682C969.595 861.151 968.92 863.015 968.92 865.273V888H963.466V864.091C963.466 862.106 962.822 860.508 961.534 859.295C960.246 858.068 958.587 857.455 956.557 857.455C955.163 857.455 953.86 857.826 952.648 858.568C951.451 859.311 950.481 860.341 949.739 861.659C949.011 862.962 948.648 864.47 948.648 866.182V888H943.284ZM1049.45 856C1048.95 854.47 1048.3 853.098 1047.48 851.886C1046.67 850.659 1045.71 849.614 1044.59 848.75C1043.48 847.886 1042.23 847.227 1040.82 846.773C1039.41 846.318 1037.86 846.091 1036.18 846.091C1033.42 846.091 1030.92 846.803 1028.66 848.227C1026.4 849.651 1024.61 851.75 1023.27 854.523C1021.94 857.295 1021.27 860.697 1021.27 864.727C1021.27 868.758 1021.95 872.159 1023.3 874.932C1024.64 877.705 1026.47 879.803 1028.77 881.227C1031.08 882.651 1033.67 883.364 1036.55 883.364C1039.21 883.364 1041.56 882.795 1043.59 881.659C1045.64 880.508 1047.23 878.886 1048.36 876.795C1049.52 874.689 1050.09 872.212 1050.09 869.364L1051.82 869.727H1037.82V864.727H1055.55V869.727C1055.55 873.561 1054.73 876.894 1053.09 879.727C1051.47 882.561 1049.23 884.758 1046.36 886.318C1043.52 887.864 1040.24 888.636 1036.55 888.636C1032.42 888.636 1028.8 887.667 1025.68 885.727C1022.58 883.788 1020.15 881.03 1018.41 877.455C1016.68 873.879 1015.82 869.636 1015.82 864.727C1015.82 861.045 1016.31 857.735 1017.3 854.795C1018.3 851.841 1019.7 849.326 1021.52 847.25C1023.34 845.174 1025.49 843.583 1027.98 842.477C1030.46 841.371 1033.2 840.818 1036.18 840.818C1038.64 840.818 1040.92 841.189 1043.05 841.932C1045.18 842.659 1047.08 843.697 1048.75 845.045C1050.43 846.379 1051.83 847.977 1052.95 849.841C1054.08 851.689 1054.85 853.742 1055.27 856H1049.45ZM1079.11 888.727C1075.74 888.727 1072.84 887.985 1070.4 886.5C1067.98 885 1066.11 882.909 1064.79 880.227C1063.49 877.53 1062.84 874.394 1062.84 870.818C1062.84 867.242 1063.49 864.091 1064.79 861.364C1066.11 858.621 1067.94 856.485 1070.29 854.955C1072.65 853.409 1075.41 852.636 1078.56 852.636C1080.38 852.636 1082.18 852.939 1083.95 853.545C1085.72 854.151 1087.34 855.136 1088.79 856.5C1090.24 857.848 1091.4 859.636 1092.27 861.864C1093.13 864.091 1093.56 866.833 1093.56 870.091V872.364H1066.65V867.727H1088.11C1088.11 865.758 1087.71 864 1086.93 862.455C1086.15 860.909 1085.05 859.689 1083.61 858.795C1082.18 857.901 1080.5 857.455 1078.56 857.455C1076.43 857.455 1074.58 857.985 1073.02 859.045C1071.47 860.091 1070.28 861.455 1069.45 863.136C1068.62 864.818 1068.2 866.621 1068.2 868.545V871.636C1068.2 874.273 1068.65 876.508 1069.56 878.341C1070.49 880.159 1071.77 881.545 1073.4 882.5C1075.04 883.439 1076.94 883.909 1079.11 883.909C1080.52 883.909 1081.79 883.712 1082.93 883.318C1084.08 882.909 1085.07 882.303 1085.9 881.5C1086.74 880.682 1087.38 879.667 1087.84 878.455L1093.02 879.909C1092.47 881.667 1091.55 883.212 1090.27 884.545C1088.98 885.864 1087.39 886.894 1085.49 887.636C1083.6 888.364 1081.47 888.727 1079.11 888.727ZM1107.09 867V888H1101.72V853.091H1106.9V858.545H1107.36C1108.18 856.773 1109.42 855.348 1111.09 854.273C1112.75 853.182 1114.9 852.636 1117.54 852.636C1119.9 852.636 1121.97 853.121 1123.74 854.091C1125.52 855.045 1126.9 856.5 1127.88 858.455C1128.87 860.394 1129.36 862.848 1129.36 865.818V888H1123.99V866.182C1123.99 863.439 1123.28 861.303 1121.86 859.773C1120.43 858.227 1118.48 857.455 1115.99 857.455C1114.28 857.455 1112.75 857.826 1111.4 858.568C1110.07 859.311 1109.02 860.394 1108.24 861.818C1107.47 863.242 1107.09 864.97 1107.09 867ZM1153.8 888.727C1150.43 888.727 1147.53 887.985 1145.09 886.5C1142.67 885 1140.8 882.909 1139.48 880.227C1138.17 877.53 1137.52 874.394 1137.52 870.818C1137.52 867.242 1138.17 864.091 1139.48 861.364C1140.8 858.621 1142.63 856.485 1144.98 854.955C1147.34 853.409 1150.1 852.636 1153.25 852.636C1155.07 852.636 1156.86 852.939 1158.64 853.545C1160.41 854.151 1162.02 855.136 1163.48 856.5C1164.93 857.848 1166.09 859.636 1166.95 861.864C1167.82 864.091 1168.25 866.833 1168.25 870.091V872.364H1141.34V867.727H1162.8C1162.8 865.758 1162.4 864 1161.61 862.455C1160.84 860.909 1159.73 859.689 1158.3 858.795C1156.87 857.901 1155.19 857.455 1153.25 857.455C1151.11 857.455 1149.27 857.985 1147.7 859.045C1146.16 860.091 1144.97 861.455 1144.14 863.136C1143.3 864.818 1142.89 866.621 1142.89 868.545V871.636C1142.89 874.273 1143.34 876.508 1144.25 878.341C1145.17 880.159 1146.45 881.545 1148.09 882.5C1149.73 883.439 1151.63 883.909 1153.8 883.909C1155.2 883.909 1156.48 883.712 1157.61 883.318C1158.77 882.909 1159.76 882.303 1160.59 881.5C1161.42 880.682 1162.07 879.667 1162.52 878.455L1167.7 879.909C1167.16 881.667 1166.24 883.212 1164.95 884.545C1163.67 885.864 1162.08 886.894 1160.18 887.636C1158.29 888.364 1156.16 888.727 1153.8 888.727ZM1176.41 888V853.091H1181.59V858.364H1181.95C1182.59 856.636 1183.74 855.235 1185.41 854.159C1187.08 853.083 1188.95 852.545 1191.05 852.545C1191.44 852.545 1191.93 852.553 1192.52 852.568C1193.11 852.583 1193.56 852.606 1193.86 852.636V858.091C1193.68 858.045 1193.27 857.977 1192.61 857.886C1191.98 857.78 1191.3 857.727 1190.59 857.727C1188.89 857.727 1187.38 858.083 1186.05 858.795C1184.73 859.492 1183.68 860.462 1182.91 861.705C1182.15 862.932 1181.77 864.333 1181.77 865.909V888H1176.41ZM1210.49 888.818C1208.28 888.818 1206.27 888.401 1204.47 887.568C1202.67 886.72 1201.24 885.5 1200.18 883.909C1199.12 882.303 1198.59 880.364 1198.59 878.091C1198.59 876.091 1198.98 874.47 1199.77 873.227C1200.55 871.97 1201.61 870.985 1202.93 870.273C1204.24 869.561 1205.7 869.03 1207.29 868.682C1208.9 868.318 1210.51 868.03 1212.13 867.818C1214.25 867.545 1215.97 867.341 1217.29 867.205C1218.62 867.053 1219.59 866.803 1220.2 866.455C1220.82 866.106 1221.13 865.5 1221.13 864.636V864.455C1221.13 862.212 1220.52 860.47 1219.29 859.227C1218.08 857.985 1216.24 857.364 1213.77 857.364C1211.21 857.364 1209.2 857.924 1207.74 859.045C1206.29 860.167 1205.27 861.364 1204.68 862.636L1199.59 860.818C1200.49 858.697 1201.71 857.045 1203.22 855.864C1204.75 854.667 1206.42 853.833 1208.22 853.364C1210.04 852.879 1211.83 852.636 1213.59 852.636C1214.71 852.636 1215.99 852.773 1217.45 853.045C1218.92 853.303 1220.34 853.841 1221.7 854.659C1223.08 855.477 1224.22 856.712 1225.13 858.364C1226.04 860.015 1226.49 862.227 1226.49 865V888H1221.13V883.273H1220.86C1220.49 884.03 1219.89 884.841 1219.04 885.705C1218.19 886.568 1217.06 887.303 1215.65 887.909C1214.24 888.515 1212.52 888.818 1210.49 888.818ZM1211.31 884C1213.43 884 1215.22 883.583 1216.68 882.75C1218.15 881.917 1219.25 880.841 1219.99 879.523C1220.75 878.205 1221.13 876.818 1221.13 875.364V870.455C1220.9 870.727 1220.4 870.977 1219.63 871.205C1218.87 871.417 1217.99 871.606 1216.99 871.773C1216.01 871.924 1215.05 872.061 1214.11 872.182C1213.18 872.288 1212.43 872.379 1211.86 872.455C1210.46 872.636 1209.16 872.932 1207.95 873.341C1206.75 873.735 1205.78 874.333 1205.04 875.136C1204.31 875.924 1203.95 877 1203.95 878.364C1203.95 880.227 1204.64 881.636 1206.02 882.591C1207.41 883.53 1209.18 884 1211.31 884ZM1251.47 853.091V857.636H1233.38V853.091H1251.47ZM1238.65 844.727H1244.01V878C1244.01 879.515 1244.23 880.651 1244.67 881.409C1245.13 882.151 1245.7 882.651 1246.4 882.909C1247.11 883.151 1247.86 883.273 1248.65 883.273C1249.24 883.273 1249.72 883.242 1250.1 883.182C1250.48 883.106 1250.78 883.045 1251.01 883L1252.1 887.818C1251.74 887.955 1251.23 888.091 1250.58 888.227C1249.93 888.379 1249.1 888.455 1248.1 888.455C1246.59 888.455 1245.1 888.129 1243.65 887.477C1242.21 886.826 1241.01 885.833 1240.06 884.5C1239.12 883.167 1238.65 881.485 1238.65 879.455V844.727ZM1273.34 888.727C1270.19 888.727 1267.42 887.977 1265.05 886.477C1262.68 884.977 1260.83 882.879 1259.5 880.182C1258.18 877.485 1257.52 874.333 1257.52 870.727C1257.52 867.091 1258.18 863.917 1259.5 861.205C1260.83 858.492 1262.68 856.386 1265.05 854.886C1267.42 853.386 1270.19 852.636 1273.34 852.636C1276.49 852.636 1279.25 853.386 1281.61 854.886C1283.99 856.386 1285.84 858.492 1287.16 861.205C1288.49 863.917 1289.16 867.091 1289.16 870.727C1289.16 874.333 1288.49 877.485 1287.16 880.182C1285.84 882.879 1283.99 884.977 1281.61 886.477C1279.25 887.977 1276.49 888.727 1273.34 888.727ZM1273.34 883.909C1275.73 883.909 1277.7 883.295 1279.25 882.068C1280.8 880.841 1281.94 879.227 1282.68 877.227C1283.42 875.227 1283.8 873.061 1283.8 870.727C1283.8 868.394 1283.42 866.22 1282.68 864.205C1281.94 862.189 1280.8 860.561 1279.25 859.318C1277.7 858.076 1275.73 857.455 1273.34 857.455C1270.95 857.455 1268.98 858.076 1267.43 859.318C1265.89 860.561 1264.74 862.189 1264 864.205C1263.26 866.22 1262.89 868.394 1262.89 870.727C1262.89 873.061 1263.26 875.227 1264 877.227C1264.74 879.227 1265.89 880.841 1267.43 882.068C1268.98 883.295 1270.95 883.909 1273.34 883.909ZM1297.35 888V853.091H1302.53V858.364H1302.89C1303.53 856.636 1304.68 855.235 1306.35 854.159C1308.01 853.083 1309.89 852.545 1311.98 852.545C1312.38 852.545 1312.87 852.553 1313.46 852.568C1314.05 852.583 1314.5 852.606 1314.8 852.636V858.091C1314.62 858.045 1314.2 857.977 1313.55 857.886C1312.91 857.78 1312.24 857.727 1311.53 857.727C1309.83 857.727 1308.32 858.083 1306.98 858.795C1305.66 859.492 1304.62 860.462 1303.85 861.705C1303.09 862.932 1302.71 864.333 1302.71 865.909V888H1297.35Z" fill="black"/>
<circle cx="1745" cy="55" r="132" fill="#B13BCF"/>
<ellipse cx="1615" cy="159" rx="82" ry="80" fill="#3751DA"/>
<ellipse cx="181.5" cy="6" rx="108.5" ry="106" fill="#DAD537"/>
<ellipse cx="604" cy="79" rx="217" ry="212" fill="#4ADA37"/>
<ellipse cx="246" cy="1038" rx="217" ry="212" fill="#3778DA"/>
<ellipse cx="1744.5" cy="1037.5" rx="301.5" ry="294.5" fill="#37DAAC"/>
<ellipse cx="1935" cy="825.5" rx="144" ry="140.5" fill="#DA3737"/>
</g>
<defs>
<radialGradient id="paint0_radial_2056_5" cx="0" cy="0" r="1" gradientUnits="userSpaceOnUse" gradientTransform="translate(422.61 450.942) rotate(133.746) scale(483.54)">
<stop stop-color="#007BEE"/>
<stop offset="1" stop-color="#9706B5"/>
</radialGradient>
<radialGradient id="paint1_radial_2056_5" cx="0" cy="0" r="1" gradientUnits="userSpaceOnUse" gradientTransform="translate(432.59 440.961) rotate(132.51) scale(162.471)">
<stop stop-color="#02FF2D"/>
<stop offset="1" stop-color="#06B4C0"/>
</radialGradient>
<clipPath id="clip0_2056_5">
<rect width="1920" height="1080" fill="white" transform="translate(0 0.956146)"/>
</clipPath>
</defs>
</svg>
