<svg width="128" height="128" viewBox="0 0 128 128" fill="none" xmlns="http://www.w3.org/2000/svg">
<g clip-path="url(#clip0_2056_2)">
<path d="M0 110.933V17.0667C0 11.0928 0 8.10583 1.1626 5.8241C2.18525 3.81704 3.81704 2.18525 5.8241 1.1626C8.10583 0 11.0928 0 17.0667 0H25.6C31.5739 0 34.5608 0 36.8426 1.1626C38.8496 2.18525 40.4814 3.81704 41.5041 5.8241C42.6667 8.10583 42.6667 11.0928 42.6667 17.0667V68.2667C42.6667 74.2406 42.6667 77.2275 43.8293 79.5092C44.8519 81.5163 46.4837 83.1481 48.4908 84.1707C50.7725 85.3333 53.7594 85.3333 59.7333 85.3333H110.933C116.907 85.3333 119.894 85.3333 122.176 86.4959C124.183 87.5186 125.815 89.1504 126.837 91.1574C128 93.4392 128 96.4261 128 102.4V110.933C128 116.907 128 119.894 126.837 122.176C125.815 124.183 124.183 125.815 122.176 126.837C119.894 128 116.907 128 110.933 128H17.0667C11.0928 128 8.10583 128 5.8241 126.837C3.81704 125.815 2.18525 124.183 1.1626 122.176C0 119.894 0 116.907 0 110.933Z" fill="url(#paint0_radial_2056_2)"/>
<circle cx="90.6666" cy="37.3333" r="37.3333" fill="url(#paint1_radial_2056_2)"/>
</g>
<defs>
<radialGradient id="paint0_radial_2056_2" cx="0" cy="0" r="1" gradientUnits="userSpaceOnUse" gradientTransform="translate(106.667 16) rotate(133.746) scale(258.392)">
<stop stop-color="#007BEE"/>
<stop offset="1" stop-color="#9706B5"/>
</radialGradient>
<radialGradient id="paint1_radial_2056_2" cx="0" cy="0" r="1" gradientUnits="userSpaceOnUse" gradientTransform="translate(112 10.6667) rotate(132.51) scale(86.8204)">
<stop stop-color="#02FF2D"/>
<stop offset="1" stop-color="#06B4C0"/>
</radialGradient>
<clipPath id="clip0_2056_2">
<rect width="128" height="128" fill="white"/>
</clipPath>
</defs>
</svg>
